# xmcd
#
# Track frame offsets: 
#        150
#        17450
#        34610
#        49954
#        64947
#        79344
#        99100
#        110644
#        125598
#
# Disc length: 1918 seconds
#
# Revision: 4
# Processed by: cddbd v1.5.2PL0 Copyright (c) Steve Scherf et al.
# Submitted via: ExactAudioCopyFreeDBPlugin 1.0
#
DISCID=70077c09
DTITLE=Ashley Monroe - Like a Rose
DYEAR=2013
DGENRE=Country
TTITLE0=Like a Rose
TTITLE1=Two Weeks Late
TTITLE2=Used
TTITLE3=Weed Instead of Roses
TTITLE4=You Got Me
TTITLE5=The Morning After
TTITLE6=Monroe Suede
TTITLE7=She's Driving Me Out of Your Mind
TTITLE8=You Ain't Dolly (And You Ain't Porter) (Duet with Blake Shelto
TTITLE8=n)
EXTD=YEAR: 2013
EXTT0=
EXTT1=
EXTT2=
EXTT3=
EXTT4=
EXTT5=
EXTT6=
EXTT7=
EXTT8=
PLAYORDER=
